# xmcd
#
# Track frame offsets: 
#        150
#        10690
#        26718
#        42705
#        51885
#        53299
#        66671
#        67624
#        73199
#        74278
#        94522
#        95158
#        104198
#        116559
#        117811
#        128719
#        153626
#
# Disc length: 2325 seconds
#
# Revision: 0
# Processed by: cddbd v1.5.2PL0 Copyright (c) Steve Scherf et al.
# Submitted via: ExactAudioCopy v1.0b1
#
DISCID=f4091311
DTITLE=Gil Scott Heron - I'm New Here
DYEAR=2010
DGENRE=Blues
TTITLE0=On Coming From A Broken Home (Part.1)
TTITLE1=Me And The Devil
TTITLE2=I'm New Here
TTITLE3=Your Soul And Mine
TTITLE4=Parents (Interlude)
TTITLE5=I'll Take Care Of You
TTITLE6=Being Blessed (Interlude)
TTITLE7=Where Did The Night Go
TTITLE8=I Was Guided (Interlude)
TTITLE9=New York Is Killing Me
TTITLE10=Certain Things (Interlude)
TTITLE11=Running
TTITLE12=The Crutch
TTITLE13=I've Been Me (Interlude)
TTITLE14=On Coming From A Broken Home (Part.2)
TTITLE15=Winter In America
TTITLE16=Is That Jazz 
EXTD=
EXTT0=
EXTT1=
EXTT2=
EXTT3=
EXTT4=
EXTT5=
EXTT6=
EXTT7=
EXTT8=
EXTT9=
EXTT10=
EXTT11=
EXTT12=
EXTT13=
EXTT14=
EXTT15=
EXTT16=
PLAYORDER=
